<?xml version="1.0" encoding="UTF-8" standalone="no"?>
<svg
   version="1.0"
   width="216.000000pt"
   height="216.000000pt"
   viewBox="0 0 216.000000 216.000000"
   preserveAspectRatio="xMidYMid meet"
   id="svg184"
   sodipodi:docname="QGCLogoWhite.svg"
   inkscape:version="1.2.1 (ef4d3fba62, 2022-07-19, custom)"
   xmlns:inkscape="http://www.inkscape.org/namespaces/inkscape"
   xmlns:sodipodi="http://sodipodi.sourceforge.net/DTD/sodipodi-0.dtd"
   xmlns="http://www.w3.org/2000/svg"
   xmlns:svg="http://www.w3.org/2000/svg">
  <defs
     id="defs188" />
  <sodipodi:namedview
     id="namedview186"
     pagecolor="#505050"
     bordercolor="#eeeeee"
     borderopacity="1"
     inkscape:showpageshadow="0"
     inkscape:pageopacity="0"
     inkscape:pagecheckerboard="0"
     inkscape:deskcolor="#505050"
     inkscape:document-units="pt"
     showgrid="false"
     inkscape:zoom="2.3177389"
     inkscape:cx="151.22497"
     inkscape:cy="183.36837"
     inkscape:window-width="815"
     inkscape:window-height="1001"
     inkscape:window-x="26"
     inkscape:window-y="23"
     inkscape:window-maximized="0"
     inkscape:current-layer="svg184" />
  <g
     transform="translate(0.000000,216.000000) scale(0.100000,-0.100000)"
     fill="#000000"
     stroke="none"
     id="g182">
    <path
       id="path180"
       d="m 1692.9932,1740 c -21,0 -44.9981,-17.9971 -97.9981,-71.9971 -48.9993,-49.9993 -81.9961,-95.0088 -105.9961,-144.0088 -35.9993,-75.9993 -33.0046,-73.9928 -149.0039,-106.9921 -19,-5 -43.0019,-13.003 -52.0019,-18.003 -7.1759,-3.5879 -16.9069,-5.0121 -25.8252,-6.4599 -2.4476,-0.9319 -4.9193,-1.7984 -7.3242,-2.8125 -4.4585,-1.7268 -9.0544,-3.1393 -13.6524,-4.4532 -4.4416,-0.9752 -8.798,-2.2069 -13.2861,-2.9589 -1.7223,-0.2783 -3.4558,-0.5562 -5.1856,-0.8497 -5.7191,-4.194 -26.2961,-13.6457 -47.7246,-20.4638 -52.9993,-17 -102.9899,-38.9981 -193.98924,-82.9981 -73.99951,-35.9993 -75.00398,-36.9954 -89.00391,-15.9961 -10.99993,15 -12.99804,37.9942 -7.99804,98.9942 4.99993,56.9993 4.0009,78.999 -3.99903,78.999 -19.99986,0 -81.99853,-30.9971 -142.99804,-71.9971 -52.99965,-35.9993 -177.01172,-153.999 -177.01172,-168.999 0,-4 -12.9894,-20.9987 -28.98926,-37.998 -15.99986,-17 -47.00209,-65.9991 -67.00195,-108.9991 C 443.00405,1010.0075 418.99505,967.99993 409.99512,960 387.99526,938.00014 279.99881,811.99965 243.99902,765 c -46.99965,-60.99958 -96.99993,-161.99623 -90,-180.99609 5,-11.99993 13.99435,-15.00482 38.99414,-10.00489 16.99993,4 48.0021,9.00782 67.00196,13.00782 l 35.00976,4.99511 -44.0039,-45 c -24.99986,-25.99979 -40.00586,-49.99707 -36.00586,-56.99707 7.99993,-11.99993 169.01011,-5.00969 215.00976,9.99024 13.99993,3.99993 44.99038,13.00983 69.99024,20.00976 73.99944,19.99986 145.00551,51.99352 235.00488,102.99317 45.99965,26.99979 56.99589,28.99609 169.99512,30.99609 171.99858,3 260.00978,25.01005 260.00978,65.00977 0,21.99979 -8.0095,29.99135 -54.0088,50.99121 -8,2.99993 -18.9902,13.99811 -24.9902,22.99804 -9,14.99993 -4.0101,24.00217 28.9892,52.00196 22,17.99986 57.9997,44.01179 78.999,57.01172 49,28.99979 246.001,222.99806 266.001,262.99806 8,16 24.0098,37.999 35.0098,48.999 11,12 26.9912,31.9961 35.9912,45.9961 13,19 19,22.0039 30,14.0039 8,-6 41,-21.0029 75,-33.0029 107.9993,-38 354.0088,-22.9935 354.0088,21.0058 0,12 -17.9981,26.9893 -52.9981,43.9893 -132.9986,61.9993 -217.0019,212.0056 -217.0019,385.0049 0,46.9993 -1.0124,48.999 -27.0117,48.999 z M 703.24219,1057.7197 c 6.20263,-0.034 12.35466,-1.1885 18.39844,-2.6513 8.71079,-2.583 16.8733,-6.4376 24.59472,-11.1768 9.18722,-6.4225 17.77592,-13.7422 25.44434,-21.9141 6.49746,-7.218 11.85723,-15.3652 16.24511,-24.00875 3.51998,-6.46537 6.00761,-13.36929 7.77833,-20.49316 1.43232,-6.5265 2.05435,-13.22001 1.86035,-19.89258 0.004,-2.9953 -0.64566,-5.87522 -1.34766,-8.74512 0.71578,-0.2289 1.12153,-0.33837 2.3877,-0.74707 5.91227,-1.6207 11.85038,-3.17247 17.70996,-4.98047 8.10115,-2.3585 16.03937,-5.36533 23.71582,-8.8623 7.13263,-2.9238 13.8103,-6.68876 20.36133,-10.72266 6.17816,-3.4005 11.97198,-7.48427 17.35839,-12.02637 5.33333,-3.93467 9.13336,-9.20497 12.87598,-14.56054 4.48382,-5.9557 8.02894,-12.42808 11.05957,-19.21875 3.36204,-7.5641 4.81062,-15.64484 5.77148,-23.80371 0.71149,-6.7367 1.01853,-13.50527 1.21583,-20.27344 0.4176,-6.3219 -0.31328,-12.6143 -1.52344,-18.8086 -1.25937,-5.86757 -2.69781,-11.69714 -4.46778,-17.43164 -1.60343,-4.14847 -0.81942,-2.18437 -2.37304,-5.91797 -7.38401,-17.74534 -25.3225,-10.26483 -17.91504,7.47071 1.23918,2.9668 0.64307,1.54444 1.75781,4.27734 1.64603,5.0693 2.7886,10.30535 3.96973,15.49805 1.03714,4.71427 1.44138,9.52092 1.14258,14.34082 -0.17921,6.20657 -0.45844,12.42474 -1.09864,18.60351 -0.71388,6.2231 -1.68201,12.41119 -4.2334,18.19336 -2.49263,5.6848 -5.47952,11.02505 -9.24316,15.98145 -2.78964,4.024 -5.45634,8.01504 -9.56543,10.89844 -4.53866,3.98757 -9.67376,7.29403 -14.92676,10.2539 -5.87888,3.6362 -11.85335,7.01838 -18.28125,9.60938 -6.88418,3.21177 -14.08934,5.8058 -21.37207,7.9541 -5.94119,1.8735 -12.0026,3.35006 -17.98828,5.06836 -9.18215,3.0867 -16.83782,5.18446 -16.69922,17.06543 0.7403,3.93817 2.11856,7.7058 2.31446,11.7334 0.37198,4.80197 -0.49656,9.69746 -1.31836,14.41406 -1.38243,5.72527 -3.42496,11.23045 -6.26954,16.40625 -3.48482,7.04997 -7.93705,13.62737 -13.13964,19.52637 -6.3957,7.0202 -13.85422,13.06 -21.50391,18.6621 -5.88689,3.8024 -12.29527,6.5689 -18.94043,8.7744 -5.85786,1.4776 -11.85693,2.6171 -17.91504,1.8311 -5.84554,-0.616 -11.70347,-1.3416 -17.43164,-2.6953 -18.70503,-4.4204 -24.22133,13.7731 -5.61035,18.5742 6.87801,1.7743 13.94065,2.6777 20.99121,3.4277 2.0776,0.265 4.14338,0.3776 6.21094,0.3662 z m 29.25293,-39.0967 c 0.75,0.875 3.51074,-1.125 8.51074,-5.625 6.99993,-6.9993 9.9873,-15.00295 6.9873,-18.00288 -2.99993,-3 -8.99707,2.01203 -11.99707,12.01168 -2.99993,7 -4.25097,10.7412 -3.50097,11.6162 z M 595.38574,991.9043 c 3.45288,0.0302 6.90478,-0.17603 10.3418,-0.64453 6.79013,-0.9247 12.45868,-4.68293 17.8418,-8.65723 5.41516,-4.4228 10.73096,-9.00854 16.04004,-13.5791 5.41998,-4.9583 11.10568,-9.64586 16.31835,-14.82422 3.2922,-3.3633 6.57969,-6.75131 9.72657,-10.25391 3.50554,-3.97496 6.4954,-8.32263 9.21386,-12.86133 2.68592,-4.72016 4.8312,-9.70158 7.23633,-14.56054 2.50272,-5.2256 4.63758,-10.53687 6.16699,-16.12793 2.07535,-8.47586 1.43075,-17.25955 0.46875,-25.83985 -1.06631,-8.30996 -3.23472,-16.42587 -5.40527,-24.50683 3.00762,0.1288 6.01325,0.22863 9.02344,0.13183 6.02241,-0.1989 11.88132,-1.61977 17.60742,-3.39843 6.71128,-2.1733 12.32479,-6.35479 18.25195,-10.00489 6.46635,-3.92216 12.40325,-8.36506 17.66602,-13.79882 5.36213,-5.2433 9.898,-11.22673 14.50195,-17.12403 4.52824,-6.04216 8.3976,-12.49302 12.31934,-18.92578 3.39234,-5.71346 5.8661,-11.94501 8.04199,-18.20801 2.25511,-6.98996 2.93423,-14.33863 3.51563,-21.62109 0.38315,-6.48386 0.8252,-12.98061 0.3955,-19.46777 -0.4971,-3.8394 -0.22692,-1.98775 -0.76172,-5.53711 -2.86356,-19.00572 -22.08907,-16.10213 -19.2041,2.90039 0.4382,2.88656 0.23364,1.48775 0.61524,4.18945 0.60123,5.42206 -0.30851,10.95894 -0.39551,16.3916 -0.44446,5.6531 -0.89651,11.37456 -2.53418,16.83106 -1.68862,4.96476 -3.6344,9.90126 -6.26953,14.44336 -3.51283,5.80086 -6.98607,11.58868 -11.03027,17.05078 -4.20661,5.39956 -8.33941,10.90221 -13.25684,15.68847 -4.01655,4.3389 -8.82302,7.54425 -13.81348,10.67871 -4.57276,2.8398 -8.8586,6.15775 -13.95996,8.02735 -4.06091,1.3623 -8.25173,2.30623 -12.53906,2.49023 -5.40274,0.368 -10.86598,-0.85529 -16.24512,0.26367 -11.9768,4.1988 -14.20279,10.30087 -11.16211,22.26563 2.07898,7.74726 4.27591,15.51848 5.34668,23.48144 0.747,6.1268 1.33581,12.45243 0.0732,18.54493 -1.15409,4.37806 -2.89395,8.48954 -4.81933,12.583 -2.17478,4.397 -4.13905,8.8811 -6.50391,13.1836 -2.09662,3.50126 -4.33322,6.89409 -7.06054,9.94629 -2.84898,3.26176 -5.92964,6.32139 -8.93555,9.43359 -4.8207,4.8797 -10.25209,9.13338 -15.26367,13.81348 -4.96834,4.27926 -9.9222,8.61234 -14.98535,12.74414 -2.77855,2.1102 -5.64119,4.45941 -9.16993,5.02441 -4.92927,0.9678 -10.07091,0.31122 -15.01465,-0.17578 -4.95406,-0.695 -10.08368,-1.32165 -14.72167,-3.25195 -17.74489,-7.38496 -24.17547,11.16958 -6.34278,18.33984 5.81818,2.3394 12.16042,3.24886 18.33985,4.13086 3.43737,0.4925 6.88895,0.76072 10.34179,0.79102 z M 456.51855,770.81543 c 5.23171,-0.2025 11.15563,-2.62724 16.88965,-8.21777 4.13355,-4.0302 7.73679,-8.41192 10.3125,-13.62305 2.46017,-5.2495 4.8028,-10.6485 5.6836,-16.4209 0.63503,-8.03253 -0.64549,-15.55375 -4.61426,-22.67578 -4.17427,-6.85773 -9.51786,-12.29788 -16.20117,-16.75781 -5.66763,-3.8926 -11.43561,-7.92687 -17.98828,-10.15137 -8.96136,-2.1637 -17.95448,-2.07335 -26.7627,0.92285 -10.47619,4.4659 -19.54121,10.71954 -24.44824,21.40137 -3.54417,9.40983 -5.03457,19.04582 -0.95215,28.62305 3.37461,7.95293 7.61947,15.56277 14.19434,21.34277 6.06347,4.76013 12.14153,9.62902 19.6289,11.98242 6.75293,2.1443 13.67477,3.72879 20.77149,3.35449 1.12183,0.1764 2.28124,0.26643 3.48632,0.21973 z" />
  </g>
  <path
     style="fill:#ffffff;stroke-width:0.431455"
     d="m 29.192448,222.7134 c -1.036556,-0.71207 1.04918,-3.84598 5.806256,-8.72415 2.463685,-2.5264 4.479427,-4.72435 4.479427,-4.88435 0,-0.35459 -2.022761,-0.0701 -9.060555,1.27441 -7.005305,1.33827 -8.409562,1.33833 -9.286213,3.9e-4 -0.623978,-0.95231 -0.604782,-1.24802 0.245073,-3.77523 1.31788,-3.91898 5.293751,-11.52202 8.659738,-16.55997 3.007545,-4.50145 10.710279,-13.92612 20.44297,-25.01297 5.791105,-6.59685 7.285744,-8.82781 11.608952,-17.32802 3.282235,-6.45348 6.602023,-11.66829 9.752943,-15.32022 1.431274,-1.65884 2.88051,-3.68189 3.220522,-4.49566 0.728788,-1.74423 9.671012,-10.76615 16.402283,-16.54847 2.607766,-2.24013 6.782093,-5.40255 9.276286,-7.0276 5.63024,-3.66829 13.52892,-7.617413 15.53699,-7.768073 l 1.51009,-0.113298 -0.0255,4.314551 c -0.014,2.373 -0.10557,6.93564 -0.20343,10.13919 -0.1949,6.38037 0.17252,8.24915 1.95024,9.91924 1.52444,1.43213 2.904,1.06154 11.77525,-3.1632 13.58085,-6.46759 22.77416,-10.29537 32.45339,-13.51248 6.65514,-2.21198 15.55109,-5.030646 19.6312,-6.220105 6.12635,-1.785991 8.74546,-2.954293 10.45468,-4.663513 0.76039,-0.760396 2.75289,-4.043486 4.42776,-7.295755 4.34412,-8.435419 7.78005,-13.04491 15.53161,-20.836552 6.80923,-6.844447 9.83102,-9.022417 12.51798,-9.022417 2.41524,0 2.57008,0.444525 3.00592,8.629682 0.41634,7.81889 0.67759,9.699908 2.13795,15.393753 3.84805,15.003226 13.48787,27.367957 26.35009,33.798507 6.08807,3.04377 8.21353,5.21013 6.72525,6.85466 -1.1525,1.27349 -4.40134,2.49404 -8.89195,3.34058 -3.24019,0.61082 -6.3741,0.77306 -15.0915,0.78127 -9.79439,0.009 -11.54253,-0.0986 -15.92538,-0.98259 -5.07401,-1.02336 -10.87667,-3.068 -15.28637,-5.38634 -2.9931,-1.57358 -3.14357,-1.51828 -5.9245,2.17733 -1.08497,1.44184 -2.94982,3.75559 -4.14412,5.14169 -1.19429,1.38609 -3.23669,4.17048 -4.53867,6.18754 -2.79656,4.33251 -10.12369,12.39243 -19.3638,21.30041 -8.27898,7.98139 -12.49141,11.52531 -19.45395,16.36665 -6.04621,4.20416 -11.0144,8.52721 -11.6149,10.10663 -0.79979,2.10361 1.11814,4.28482 5.98802,6.81005 3.58197,1.8574 4.83559,3.18863 4.83559,5.13495 0,4.11283 -5.73542,6.55284 -18.82775,8.00989 -2.1684,0.24132 -9.54628,0.62653 -16.39529,0.85603 -8.80925,0.29518 -13.21016,0.61692 -15.04147,1.09966 -1.4238,0.37532 -5.64255,2.33456 -9.374998,4.35387 -8.195738,4.43401 -14.236707,7.29231 -19.876894,9.40481 -5.578523,2.0894 -18.142332,5.72304 -22.738432,6.57629 -4.226382,0.78462 -22.730831,1.30776 -23.660788,0.66893 z m 32.247266,-26.16362 c 0.664891,-0.34382 1.820177,-1.32135 2.567306,-2.17228 1.6377,-1.86524 1.83607,-4.39582 0.514484,-6.56328 -1.346912,-2.209 -2.713324,-2.87882 -5.257914,-2.57745 -2.771341,0.32823 -4.933984,1.925 -6.062515,4.47623 -0.754897,1.70657 -0.78364,2.09724 -0.272318,3.70126 1.039797,3.26184 5.260064,4.81663 8.510957,3.13552 z m 42.748516,-3.46385 c 0.9204,-1.10903 0.40631,-7.42591 -0.79085,-9.71756 -2.30891,-4.41974 -6.665354,-8.22809 -10.088194,-8.81894 l -1.610915,-0.27807 0.257423,-3.10982 c 0.352348,-4.25662 -0.900377,-7.09813 -4.826445,-10.94766 -3.924648,-3.84814 -5.041629,-4.4564 -8.172987,-4.45066 -3.024788,0.006 -4.690558,0.70614 -4.884131,2.05417 -0.184343,1.28378 0.645487,1.53242 3.427099,1.02684 2.877934,-0.52308 3.608784,-0.17885 7.364949,3.4689 3.863865,3.75234 4.57357,5.66684 3.820267,10.30549 -0.665144,4.09581 -0.369507,4.70938 2.269164,4.70938 2.405655,0 5.137667,1.42411 7.177357,3.74132 2.518513,2.86118 3.466903,5.12155 3.606713,8.59615 0.066,1.64113 0.26941,3.22551 0.45194,3.52085 0.44697,0.72322 1.35283,0.67772 1.99861,-0.10039 z m 16.25989,-11.33552 c 0.55,-1.42549 0.77755,-3.10022 0.74742,-5.50105 -0.0538,-4.29053 -1.22744,-7.25369 -3.81908,-9.64259 -1.9376,-1.78601 -6.15865,-3.98617 -9.18912,-4.78968 -1.82808,-0.4847 -1.8337,-0.4924 -1.8379,-2.51897 -0.0103,-4.96948 -4.90999,-10.75895 -10.301486,-12.17223 -2.32666,-0.60989 -5.753547,-0.19444 -7.049021,0.85457 -0.840193,0.68034 -0.881031,0.86068 -0.341975,1.51021 0.509337,0.61371 1.059446,0.68969 3.27539,0.45238 3.303824,-0.35381 5.24311,0.36514 7.877221,2.9203 2.617821,2.53936 3.523901,4.48525 3.523901,7.56789 0,1.52718 0.21671,2.72461 0.53932,2.97994 0.29662,0.23477 1.8984,0.86776 3.5595,1.40664 3.71123,1.20397 5.72521,2.19572 7.51177,3.699 2.98088,2.50825 4.14307,7.20793 2.86751,11.59569 -0.84205,2.89657 -0.67278,3.68731 0.78933,3.68731 0.86176,0 1.20224,-0.37774 1.84722,-2.04941 z M 99.881829,154.81228 c 0,-0.94359 -1.535743,-2.94013 -2.261558,-2.94013 -0.468922,0 -0.0296,1.58681 0.806338,2.91233 0.77762,1.23307 1.45522,1.24602 1.45522,0.0278 z"
     id="path219"
     transform="scale(0.75)" />
</svg>
